{"title":"Las.Locuras.del.Emperador.Esp.latino.eng.6CH","uid":12122471,"size":1143770105,"categoryP":"video","categoryS":"movies","magnet":"?xt=urn:btih:4c69976c97b09f3c4996e2df9ebce149f9e2a189&amp;dn=Las.Locuras.del.Emperador.Esp.latino.eng.6CH&amp;tr=udp%3A%2F%2Ftracker.openbittorrent.com%3A80&amp;tr=udp%3A%2F%2Fopen.demonii.com%3A1337&amp;tr=udp%3A%2F%2Ftracker.coppersurfer.tk%3A6969&amp;tr=udp%3A%2F%2Fexodus.desync.com%3A6969","seeders":1,"leechers":0,"uploader":"alex.bvx","files":2,"time":1436854330,"description":"General\nComplete name                  : The Emperors New Groove 2000.mkv\nFormat                         : Matroska\nFormat version                 : Version 2\nFile size                      : 1.07 GiB\nDuration                       : 1h 18mn\nOverall bit rate               : 1 945 Kbps\nWriting application            : HandBrake 0.10.1 2015030800\nWriting library                : Lavf55.12.0\n\nVideo\nID                             : 1\nFormat                         : AVC\nFormat/Info                    : Advanced Video Codec\nFormat profile                 : &lt;a class=&quot;__cf_email__&quot; href=&quot;/cdn-cgi/l/email-protection&quot; data-cfemail=&quot;2860414f4068641c0619&quot;&gt;[email&amp;#160;protected]&lt;/a&gt;&lt;script data-cfhash='f9e31' type=&quot;text/javascript&quot;&gt;\n/* &lt;![CDATA[ */!function(){try{var t=&quot;currentScript&quot;in document?document.currentScript:function(){for(var t=document.getElementsByTagName(&quot;script&quot;),e=t.length;e--;)if(t[e].getAttribute(&quot;data-cfhash&quot;))return t[e]}();if(t&amp;&amp;t.previousSibling){var e,r,n,i,c=t.previousSibling,a=c.getAttribute(&quot;data-cfemail&quot;);if(a){for(e=&quot;&quot;,r=parseInt(a.substr(0,2),16),n=2;a.length-n;n+=2)i=parseInt(a.substr(n,2),16)^r,e+=String.fromCharCode(i);e=document.createTextNode(e),c.parentNode.replaceChild(e,c)}t.parentNode.removeChild(t);}}catch(u){}}()/* ]]&gt; */&lt;/script&gt;\nFormat settings, CABAC         : Yes\nFormat settings, ReFrames      : 4 frames\nCodec ID                       : V_MPEG4/ISO/AVC\nBit rate                       : 1 074 Kbps\nWidth                          : 680 pixels\nHeight                         : 480 pixels\nDisplay aspect ratio           : 1.677\nOriginal display aspect ratio  : 1.679\nFrame rate mode                : Variable\nColor space                    : YUV\nChroma subsampling             : 4:2:0\nBit depth                      : 8 bits\nScan type                      : Progressive\nWriting library                : x264 core 142 r2479 dd79a61\nDefault                        : Yes\nForced                         : No\nColor primaries                : BT.601 NTSC\nTransfer characteristics       : BT.709\nMatrix coefficients            : BT.601\nColor range                    : Limited\n\nAudio #1\nID                             : 2\nFormat                         : AC-3\nFormat/Info                    : Audio Coding 3\nMode extension                 : CM (complete main)\nFormat settings, Endianness    : Big\nCodec ID                       : A_AC3\nDuration                       : 1h 18mn\nBit rate mode                  : Constant\nBit rate                       : 384 Kbps\nChannel(s)                     : 6 channels\nChannel positions              : Front: L C R, Side: L R, LFE\nSampling rate                  : 48.0 KHz\nBit depth                      : 16 bits\nCompression mode               : Lossy\nStream size                    : 215 MiB (20%)\nTitle                          : Spanish\nLanguage                       : Spanish\nDefault                        : Yes\nForced                         : No\n\nAudio #2\nID                             : 3\nFormat                         : AC-3\nFormat/Info                    : Audio Coding 3\nMode extension                 : CM (complete main)\nFormat settings, Endianness    : Big\nCodec ID                       : A_AC3\nDuration                       : 1h 18mn\nBit rate mode                  : Constant\nBit rate                       : 448 Kbps\nChannel(s)                     : 6 channels\nChannel positions              : Front: L C R, Side: L R, LFE\nSampling rate                  : 48.0 KHz\nBit depth                      : 16 bits\nCompression mode               : Lossy\nStream size                    : 251 MiB (23%)\nTitle                          : English\nLanguage                       : English\nDefault                        : No\nForced                         : No\n\nText #1\nID                             : 4\nFormat                         : VobSub\nCodec ID                       : S_VOBSUB\nCodec ID/Info                  : The same subtitle format used on DVDs\nLanguage                       : Spanish\nDefault                        : No\nForced                         : No\n\nText #2\nID                             : 5\nFormat                         : VobSub\nCodec ID                       : S_VOBSUB\nCodec ID/Info                  : The same subtitle format used on DVDs\nLanguage                       : English\nDefault                        : No\nForced                         : No","torrent":{"xt":"urn:btih:4c69976c97b09f3c4996e2df9ebce149f9e2a189","amp;dn":"Las.Locuras.del.Emperador.Esp.latino.eng.6CH","amp;tr":["udp%3A%2F%2Ftracker.openbittorrent.com%3A80","udp%3A%2F%2Fopen.demonii.com%3A1337","udp%3A%2F%2Ftracker.coppersurfer.tk%3A6969","udp%3A%2F%2Fexodus.desync.com%3A6969"],"infoHash":"4c69976c97b09f3c4996e2df9ebce149f9e2a189","infoHashBuffer":{"type":"Buffer","data":[76,105,151,108,151,176,159,60,73,150,226,223,158,188,225,73,249,226,161,137]},"announce":[],"urlList":[]}}